<svg aria-hidden="true" style="position:absolute;width:0;height:0" xmlns="http://www.w3.org/2000/svg" overflow="hidden"><defs><symbol id="facebook" viewBox="0 0 16 32"><path d="M14.879.245v5.072s-3.738-.373-4.674 1.06c-.512.783-.208 3.077-.254 4.724h4.959c-.418 1.925-.719 3.23-1.028 4.896H9.924v15.759h-6.87V16.059H.131v-4.958h2.891c.148-3.626.203-7.217 2.005-9.046C7.05-.002 8.981.246 14.879.246z"/></symbol><symbol id="instagram" viewBox="0 0 32 32"><path d="M27.938 31.754H4.307a3.939 3.939 0 01-3.938-3.94V4.184A3.94 3.94 0 014.307.244h23.631a3.939 3.939 0 013.938 3.94v23.63a3.94 3.94 0 01-3.938 3.94zM16.123 9.894a6.1 6.1 0 00-5.536 3.545h-.006c-.01.022-.017.046-.027.068-.058.129-.108.262-.158.395-.023.065-.049.128-.07.192a5.51 5.51 0 00-.117.418c-.017.065-.037.13-.052.197a6.11 6.11 0 00-.075.453c-.009.062-.021.122-.028.185a6.104 6.104 0 006.069 6.757 6.104 6.104 0 006.069-6.757c-.007-.063-.02-.123-.028-.185a6.11 6.11 0 00-.075-.453c-.015-.066-.034-.132-.052-.197a4.87 4.87 0 00-.117-.418c-.021-.064-.047-.127-.07-.192a6.132 6.132 0 00-.158-.395c-.01-.022-.017-.046-.027-.068h-.006a6.1 6.1 0 00-5.536-3.545zm12.209-4.529c0-.87-.705-1.574-1.575-1.574h-3.151c-.87 0-1.575.704-1.575 1.574v3.152c0 .87.705 1.575 1.575 1.575h3.151c.87 0 1.575-.705 1.575-1.575V5.365zm0 8.074h-2.905c.224.816.345 1.675.345 2.561 0 5.329-4.32 9.648-9.649 9.648S6.474 21.329 6.474 16c0-.886.121-1.745.345-2.561H3.914v13.194c0 .871.705 1.577 1.575 1.577h21.268c.87 0 1.575-.705 1.575-1.577V13.439z"/></symbol><symbol id="pinterest" viewBox="0 0 24 32"><path d="M10.173 20.771c-.261 1.049-.525 2.136-.797 3.197a23.478 23.478 0 01-.95 3.249l.054-.163a15.88 15.88 0 01-2.574 4.436l.022-.027c-.718.824-.566.5-.782.45-.165-.037-.179-.2-.211-.425a24.211 24.211 0 01.016-4.266l-.007.094c.115-1.598.376-3.08.774-4.506l-.038.159c.605-2.573 1.182-5.096 1.792-7.694.063-.162.104-.35.112-.546v-.004a7.84 7.84 0 01-.532-2.086l-.003-.037a6.8 6.8 0 01.184-2.483l-.011.047a4.044 4.044 0 012.34-2.913l.026-.01a2.747 2.747 0 012.182.182l-.015-.007a2.32 2.32 0 011.081 1.534l.002.015a5.598 5.598 0 01-.108 2.4l.009-.039c-.334 1.524-.772 2.673-1.17 4.134a4.597 4.597 0 00-.233 2.287l-.003-.025a2.654 2.654 0 001.05 1.593l.008.005a3.09 3.09 0 002.04.574l-.01.001a4.466 4.466 0 003.301-1.945l.01-.016a11.521 11.521 0 002.09-5.819l.002-.039a14.831 14.831 0 00.086-2.547l.002.037a6.815 6.815 0 00-1.419-3.913l.012.016a6.62 6.62 0 00-3.091-2.123l-.047-.013a10.12 10.12 0 00-2.958-.432c-.608 0-1.205.053-1.784.153l.062-.009A8.284 8.284 0 004.57 7.61l-.022.046a8.733 8.733 0 00-1.046 4.173v.091-.005a5.524 5.524 0 00.86 3.146l-.013-.022c.166.25.41.462.572.749a2.132 2.132 0 01-.154 1.461l.006-.013c-.137.537-.152 1.262-.772 1.274a1.714 1.714 0 01-.802-.303l.005.004a6.394 6.394 0 01-3.022-4.64l-.003-.032c-.118-.607-.185-1.304-.185-2.017s.067-1.411.196-2.086l-.011.069a11.591 11.591 0 015.442-7.652l.054-.029A12.78 12.78 0 0110.488.158l.067-.007c.59-.089 1.283-.147 1.987-.162h.018a11.993 11.993 0 015.48 1.029l-.076-.03c1.461.655 2.7 1.562 3.714 2.676l.008.009a10.137 10.137 0 012.273 4.063l.017.072c.292.849.472 1.829.499 2.847v.013a17.325 17.325 0 01-.407 3.076l.022-.116a11.66 11.66 0 01-4.759 8.033l-.035.024a8.568 8.568 0 01-5.012 1.374h.016a5.785 5.785 0 01-2.506-.739l.029.015a4.161 4.161 0 01-1.637-1.543l-.01-.019z"/></symbol><symbol id="twitter" viewBox="0 0 39 32"><path d="M26.812.022a8.277 8.277 0 016.387 2.537l.003.003a13.3 13.3 0 004.212-1.436l-.07.035 1.005-.554a8.157 8.157 0 01-2.602 3.79l-.015.012a3.882 3.882 0 01-.867.621l-.021.01v.015a14.99 14.99 0 004.67-1.27l-.094.038v.015a13.234 13.234 0 01-2.721 3.123l-.021.017c-.42.339-.842.677-1.262 1a23.448 23.448 0 01-.397 5.348l.023-.146c-2.019 9.066-7.37 15.223-15.837 17.87-2.009.597-4.318.941-6.707.941-1.675 0-3.31-.169-4.889-.491l.157.027a30.287 30.287 0 01-4.951-1.631l.2.076a19.495 19.495 0 01-2.376-1.235l.087.05c-.237-.139-.473-.292-.71-.431a14.064 14.064 0 002.62.09l-.038.002c.796-.123 1.575-.092 2.309-.246a16.55 16.55 0 004.934-1.798l-.084.043a9.196 9.196 0 002.2-1.44l-.01.009a7.026 7.026 0 01-2.454-.447l.049.016c-2.432-.84-4.308-2.73-5.112-5.114l-.017-.057a8.014 8.014 0 003.666-.183l-.056.014a5.792 5.792 0 01-2.659-1.073l.016.011c-2.296-1.372-3.81-3.845-3.81-6.671 0-.084.001-.168.004-.252v.012c.277.123.553.262.828.385.486.204 1.055.37 1.646.471l.047.007a2.17 2.17 0 001.119.09l-.013.002h-.04c-.406-.462-1.07-.785-1.479-1.293a8.219 8.219 0 01-2.036-5.429c0-.673.081-1.327.232-1.954l-.012.056a9.197 9.197 0 01.892-2.154l-.024.045c.014 0 .026.015.04.015.216.319.457.597.726.843l.004.003c.716.862 1.505 1.62 2.371 2.283l.035.026a23.59 23.59 0 009.721 4.741l.159.03c1.084.287 2.333.46 3.619.477h.011a7.39 7.39 0 01-.224-1.827c0-.703.096-1.383.275-2.028l-.013.053A7.987 7.987 0 0123.983.716l.051-.02A8.701 8.701 0 0125.77.152l.058-.01c.326-.046.656-.077.984-.123z"/></symbol></defs></svg>